<svg width="1200" height="630" viewBox="0 0 1200 630" fill="none" xmlns="http://www.w3.org/2000/svg">
<rect width="1200" height="630" fill="white"/>
<path d="M324.569 272.873C327.963 272.873 331.066 272.243 333.878 270.982C336.738 269.673 339.235 267.855 341.368 265.528C343.502 263.152 345.247 260.316 346.605 257.019C348.011 253.722 348.956 250.061 349.441 246.037L357.15 182.838H376.059L368.277 246.037C367.501 252.243 365.853 257.988 363.332 263.273C360.811 268.558 357.562 273.115 353.586 276.946C349.659 280.776 345.053 283.782 339.768 285.964C334.532 288.097 328.787 289.164 322.532 289.164C316.278 289.164 310.775 288.097 306.023 285.964C301.321 283.782 297.466 280.776 294.46 276.946C291.454 273.115 289.345 268.558 288.133 263.273C286.921 257.988 286.703 252.243 287.478 246.037L295.042 182.838H313.951L306.242 245.964C305.757 249.988 305.781 253.673 306.314 257.019C306.896 260.316 307.963 263.152 309.514 265.528C311.114 267.855 313.151 269.673 315.623 270.982C318.145 272.243 321.126 272.873 324.569 272.873ZM438.953 230.983L465.353 288H448.408C447.147 288 446.153 287.661 445.426 286.982C444.747 286.303 444.214 285.552 443.826 284.727L425.644 242.619C425.208 243.443 424.747 244.219 424.263 244.946L397.063 284.727C396.239 285.939 395.318 286.788 394.299 287.273C393.33 287.758 392.287 288 391.172 288H372.336L412.917 231.783L389.209 182.838H406.299C407.56 182.838 408.481 183.032 409.063 183.42C409.645 183.759 410.129 184.365 410.517 185.238L426.59 221.456C426.832 220.971 427.099 220.486 427.39 220.001C427.681 219.516 427.996 219.007 428.335 218.474L450.735 185.456C451.899 183.711 453.329 182.838 455.026 182.838H474.735L438.953 230.983ZM601.003 228.365C601.003 237.092 599.597 245.116 596.785 252.437C593.973 259.758 590.046 266.061 585.003 271.346C580.009 276.582 574.07 280.679 567.185 283.636C560.301 286.545 552.786 288 544.64 288H507.623L520.568 182.838H557.658C564.349 182.838 570.361 183.977 575.694 186.256C581.076 188.535 585.634 191.686 589.367 195.711C593.1 199.735 595.961 204.535 597.949 210.11C599.985 215.686 601.003 221.771 601.003 228.365ZM581.658 228.801C581.658 224.098 581.076 219.831 579.912 216.001C578.749 212.171 577.052 208.922 574.822 206.256C572.64 203.541 569.949 201.456 566.749 200.001C563.549 198.547 559.889 197.82 555.767 197.82H537.731L528.422 272.946H546.531C551.816 272.946 556.616 271.928 560.931 269.891C565.246 267.855 568.931 264.946 571.985 261.164C575.088 257.334 577.464 252.704 579.112 247.273C580.809 241.795 581.658 235.637 581.658 228.801ZM646.538 224.874C644.113 224.874 641.859 225.383 639.774 226.401C637.689 227.371 635.798 228.752 634.101 230.546C632.453 232.34 630.998 234.498 629.738 237.019C628.526 239.492 627.556 242.207 626.829 245.164C632.841 244.34 637.665 243.443 641.301 242.473C644.986 241.455 647.822 240.389 649.81 239.273C651.798 238.11 653.107 236.874 653.737 235.564C654.416 234.207 654.756 232.801 654.756 231.346C654.756 230.619 654.586 229.868 654.247 229.092C653.956 228.316 653.471 227.637 652.792 227.055C652.162 226.425 651.313 225.916 650.247 225.528C649.228 225.092 647.992 224.874 646.538 224.874ZM625.302 257.6C625.302 269.334 630.271 275.2 640.21 275.2C642.344 275.2 644.235 275.006 645.883 274.618C647.531 274.182 648.962 273.673 650.174 273.091C651.434 272.509 652.55 271.855 653.519 271.128C654.537 270.4 655.459 269.746 656.283 269.164C657.156 268.582 658.004 268.097 658.828 267.709C659.652 267.273 660.549 267.055 661.519 267.055C662.101 267.055 662.658 267.2 663.192 267.491C663.774 267.782 664.283 268.17 664.719 268.655L669.301 274.182C666.731 276.752 664.21 278.982 661.737 280.873C659.265 282.764 656.743 284.315 654.174 285.527C651.604 286.739 648.889 287.636 646.028 288.218C643.168 288.8 640.065 289.091 636.72 289.091C632.356 289.091 628.404 288.364 624.865 286.909C621.326 285.406 618.296 283.321 615.774 280.655C613.253 277.94 611.29 274.691 609.884 270.909C608.526 267.079 607.847 262.813 607.847 258.11C607.847 254.182 608.259 250.328 609.084 246.546C609.956 242.764 611.193 239.177 612.793 235.783C614.393 232.389 616.356 229.262 618.683 226.401C621.011 223.54 623.629 221.068 626.538 218.983C629.495 216.898 632.72 215.274 636.21 214.11C639.75 212.947 643.532 212.365 647.556 212.365C651.434 212.365 654.828 212.922 657.737 214.038C660.695 215.153 663.143 216.607 665.083 218.401C667.071 220.147 668.549 222.11 669.519 224.292C670.489 226.474 670.974 228.607 670.974 230.692C670.974 234.037 670.295 237.092 668.937 239.855C667.628 242.619 665.252 245.092 661.81 247.273C658.416 249.455 653.762 251.346 647.847 252.946C641.932 254.497 634.417 255.734 625.302 256.655V257.6ZM728.253 227.419C727.72 228.195 727.211 228.752 726.726 229.092C726.241 229.383 725.611 229.528 724.835 229.528C723.962 229.528 723.09 229.286 722.217 228.801C721.344 228.316 720.326 227.783 719.163 227.201C718.047 226.571 716.738 226.013 715.235 225.528C713.781 225.043 712.035 224.801 709.999 224.801C706.169 224.801 703.236 225.674 701.199 227.419C699.163 229.116 698.145 231.249 698.145 233.819C698.145 235.807 698.848 237.407 700.254 238.619C701.708 239.831 703.526 240.898 705.708 241.819C707.89 242.74 710.217 243.686 712.69 244.655C715.211 245.576 717.563 246.764 719.744 248.219C721.926 249.625 723.72 251.467 725.126 253.746C726.581 255.976 727.308 258.861 727.308 262.4C727.308 265.988 726.581 269.406 725.126 272.655C723.72 275.903 721.684 278.764 719.017 281.236C716.35 283.661 713.126 285.6 709.345 287.055C705.611 288.461 701.393 289.164 696.69 289.164C694.363 289.164 692.084 288.921 689.854 288.436C687.624 288 685.539 287.37 683.599 286.545C681.709 285.721 679.963 284.752 678.363 283.636C676.763 282.521 675.406 281.309 674.291 280L678.727 273.164C679.26 272.34 679.89 271.709 680.618 271.273C681.345 270.837 682.242 270.618 683.309 270.618C684.327 270.618 685.248 270.934 686.072 271.564C686.896 272.194 687.842 272.897 688.908 273.673C690.024 274.4 691.357 275.079 692.908 275.709C694.508 276.34 696.545 276.655 699.017 276.655C701.005 276.655 702.751 276.388 704.254 275.855C705.805 275.321 707.114 274.594 708.181 273.673C709.248 272.752 710.048 271.685 710.581 270.473C711.114 269.261 711.381 267.976 711.381 266.619C711.381 264.97 710.969 263.612 710.144 262.546C709.32 261.431 708.205 260.485 706.799 259.71C705.442 258.885 703.89 258.182 702.145 257.6C700.399 256.97 698.605 256.316 696.763 255.637C694.969 254.958 693.199 254.182 691.454 253.31C689.757 252.437 688.205 251.346 686.799 250.037C685.442 248.679 684.351 247.055 683.527 245.164C682.702 243.225 682.29 240.873 682.29 238.11C682.29 234.813 682.921 231.613 684.181 228.51C685.442 225.359 687.284 222.595 689.708 220.219C692.133 217.795 695.114 215.856 698.654 214.401C702.242 212.947 706.338 212.219 710.944 212.219C715.696 212.219 719.914 213.044 723.599 214.692C727.284 216.292 730.362 218.353 732.835 220.874L728.253 227.419ZM764.802 213.383L755.856 288H738.184L747.129 213.383H764.802ZM769.383 191.638C769.383 193.189 769.044 194.644 768.365 196.001C767.735 197.359 766.886 198.547 765.82 199.565C764.753 200.583 763.541 201.407 762.183 202.038C760.826 202.62 759.42 202.91 757.965 202.91C756.559 202.91 755.202 202.62 753.893 202.038C752.584 201.407 751.42 200.583 750.402 199.565C749.384 198.547 748.559 197.359 747.929 196.001C747.347 194.644 747.056 193.189 747.056 191.638C747.056 190.086 747.372 188.608 748.002 187.202C748.632 185.796 749.456 184.583 750.475 183.565C751.493 182.499 752.656 181.674 753.965 181.093C755.323 180.462 756.705 180.147 758.111 180.147C759.565 180.147 760.971 180.462 762.329 181.093C763.686 181.674 764.874 182.474 765.892 183.493C766.959 184.511 767.808 185.723 768.438 187.129C769.068 188.535 769.383 190.038 769.383 191.638ZM796.964 301.745C799.679 301.745 802.151 301.406 804.382 300.727C806.612 300.048 808.527 299.103 810.127 297.891C811.727 296.679 812.963 295.248 813.836 293.6C814.709 291.951 815.145 290.182 815.145 288.291C815.145 287.612 815.097 286.958 815 286.327C814.951 285.649 814.878 285.018 814.782 284.436C809.06 283.467 804.163 283.055 800.091 283.2C796.018 283.346 792.697 283.855 790.127 284.727C787.558 285.6 785.667 286.764 784.455 288.218C783.243 289.673 782.637 291.224 782.637 292.873C782.637 295.782 783.8 297.988 786.127 299.491C788.503 300.994 792.115 301.745 796.964 301.745ZM803.436 253.019C805.618 253.019 807.533 252.51 809.182 251.491C810.83 250.473 812.212 249.14 813.327 247.492C814.491 245.843 815.363 244.001 815.945 241.964C816.527 239.88 816.842 237.77 816.891 235.637C816.891 232.001 816.018 229.213 814.272 227.274C812.575 225.334 810.103 224.365 806.854 224.365C804.673 224.365 802.757 224.849 801.109 225.819C799.461 226.74 798.079 228.001 796.964 229.601C795.848 231.152 795 232.946 794.418 234.983C793.885 237.019 793.618 239.128 793.618 241.31C793.618 245.043 794.467 247.928 796.164 249.964C797.861 252.001 800.285 253.019 803.436 253.019ZM844.527 216.074L843.727 221.892C843.387 224.219 842.199 225.771 840.163 226.546L832.527 228.51C832.769 229.48 832.939 230.522 833.036 231.637C833.181 232.704 833.254 233.819 833.254 234.983C833.254 237.213 833.012 239.225 832.527 241.019C832.042 242.764 831.436 244.389 830.709 245.892C830.03 247.395 829.278 248.825 828.454 250.182C827.63 251.491 826.854 252.849 826.127 254.255C825.448 255.613 824.866 257.067 824.381 258.619C823.897 260.122 823.654 261.794 823.654 263.637C823.654 265.625 824.066 267.467 824.89 269.164C825.715 270.812 826.612 272.509 827.581 274.255C828.551 276 829.448 277.867 830.272 279.855C831.096 281.843 831.509 284.146 831.509 286.764C831.46 290.448 830.612 293.939 828.963 297.236C827.315 300.582 824.939 303.491 821.836 305.963C818.781 308.485 815.024 310.472 810.563 311.927C806.103 313.381 801.061 314.109 795.436 314.109C790.879 314.109 786.758 313.624 783.073 312.654C779.388 311.733 776.261 310.424 773.691 308.727C771.122 307.03 769.134 305.018 767.728 302.691C766.322 300.412 765.619 297.891 765.619 295.127C765.619 291.733 766.346 288.776 767.8 286.255C769.255 283.733 771.194 281.624 773.619 279.927C776.043 278.182 778.831 276.8 781.982 275.782C785.133 274.764 788.406 274.037 791.8 273.6C795.194 273.164 798.588 272.994 801.982 273.091C805.376 273.188 808.527 273.479 811.436 273.964C811 272.509 810.782 270.934 810.782 269.237C810.782 266.425 811.557 263.322 813.109 259.928C811.266 261.188 809.157 262.158 806.782 262.837C804.454 263.516 801.642 263.855 798.345 263.855C795.533 263.855 792.842 263.394 790.273 262.473C787.752 261.552 785.521 260.146 783.582 258.255C781.643 256.364 780.091 254.013 778.928 251.201C777.812 248.34 777.255 245.019 777.255 241.237C777.255 237.601 777.934 234.061 779.291 230.619C780.649 227.128 782.661 224.025 785.327 221.31C787.994 218.547 791.291 216.341 795.218 214.692C799.145 213.044 803.703 212.219 808.891 212.219C811.654 212.219 814.272 212.535 816.745 213.165C819.266 213.795 821.569 214.765 823.654 216.074H844.527ZM869.898 228.801C873.679 223.225 877.873 219.08 882.479 216.365C887.085 213.601 891.837 212.219 896.734 212.219C899.837 212.219 902.624 212.85 905.097 214.11C907.57 215.371 909.606 217.213 911.206 219.637C912.806 222.013 913.921 224.971 914.552 228.51C915.23 232.001 915.279 236.001 914.697 240.51L909.097 288H891.134L896.734 240.51C897.364 235.661 897.122 232.195 896.006 230.11C894.891 227.977 892.855 226.91 889.897 226.91C887.91 226.91 885.873 227.492 883.788 228.655C881.704 229.771 879.691 231.395 877.752 233.528C875.813 235.613 874.019 238.134 872.37 241.092C870.77 244.001 869.461 247.273 868.443 250.91L864.298 288H846.334L855.28 213.31H864.371C866.261 213.31 867.716 213.771 868.734 214.692C869.801 215.613 870.334 217.092 870.334 219.128L869.898 228.801ZM308.824 362.31L300.35 433H283.607L292.082 362.31H308.824ZM313.165 341.71C313.165 343.179 312.843 344.557 312.2 345.843C311.603 347.13 310.799 348.255 309.789 349.219C308.778 350.184 307.63 350.965 306.344 351.562C305.058 352.113 303.726 352.389 302.348 352.389C301.016 352.389 299.73 352.113 298.489 351.562C297.249 350.965 296.147 350.184 295.182 349.219C294.218 348.255 293.437 347.13 292.84 345.843C292.288 344.557 292.013 343.179 292.013 341.71C292.013 340.24 292.311 338.839 292.909 337.507C293.506 336.175 294.287 335.026 295.251 334.062C296.216 333.051 297.318 332.27 298.558 331.719C299.844 331.122 301.153 330.824 302.485 330.824C303.863 330.824 305.195 331.122 306.482 331.719C307.768 332.27 308.893 333.028 309.858 333.993C310.868 334.957 311.672 336.106 312.269 337.438C312.866 338.77 313.165 340.194 313.165 341.71ZM339.087 376.917C342.669 371.634 346.643 367.707 351.006 365.135C355.37 362.517 359.871 361.208 364.51 361.208C367.45 361.208 370.091 361.805 372.434 362.999C374.776 364.193 376.705 365.939 378.221 368.235C379.737 370.486 380.793 373.288 381.39 376.641C382.033 379.948 382.079 383.738 381.528 388.009L376.223 433H359.205L364.51 388.009C365.107 383.416 364.878 380.132 363.821 378.157C362.765 376.136 360.836 375.125 358.034 375.125C356.151 375.125 354.221 375.676 352.246 376.779C350.271 377.835 348.365 379.374 346.528 381.395C344.69 383.37 342.991 385.759 341.429 388.56C339.913 391.316 338.673 394.417 337.709 397.862L333.782 433H316.764L325.238 362.241H333.85C335.642 362.241 337.02 362.678 337.984 363.55C338.995 364.423 339.5 365.824 339.5 367.753L339.087 376.917ZM460.247 383.806C463.784 383.806 466.838 383.278 469.41 382.222C471.982 381.165 474.095 379.696 475.749 377.812C477.448 375.883 478.689 373.61 479.469 370.991C480.296 368.373 480.71 365.48 480.71 362.31C480.71 360.059 480.388 357.993 479.745 356.109C479.102 354.226 478.114 352.641 476.782 351.355C475.45 350.023 473.774 348.99 471.753 348.255C469.778 347.52 467.412 347.153 464.656 347.153H452.255L447.776 383.806H460.247ZM466.379 333.373C472.028 333.373 476.874 334.062 480.916 335.44C485.004 336.772 488.357 338.655 490.975 341.089C493.594 343.524 495.523 346.418 496.763 349.771C498.049 353.078 498.692 356.729 498.692 360.726C498.692 366.054 497.842 370.991 496.143 375.539C494.489 380.04 491.986 383.944 488.633 387.251C485.28 390.513 481.077 393.085 476.025 394.968C471.018 396.805 465.162 397.724 458.455 397.724H446.054L441.713 433H423.937L436.063 333.373H466.379ZM543.597 373.472C542.954 373.426 542.334 373.403 541.736 373.403C541.185 373.357 540.634 373.334 540.083 373.334C536.27 373.334 532.734 374.207 529.473 375.952C526.211 377.697 523.386 380.063 520.998 383.049C518.655 385.988 516.795 389.433 515.417 393.383C514.085 397.288 513.419 401.422 513.419 405.785C513.419 410.746 514.2 414.374 515.762 416.671C517.323 418.968 519.459 420.116 522.169 420.116C524.052 420.116 525.89 419.473 527.681 418.187C529.518 416.855 531.241 415.063 532.849 412.813C534.502 410.516 535.995 407.829 537.327 404.752C538.705 401.674 539.899 398.367 540.91 394.83L543.597 373.472ZM538.912 418.256C535.788 423.079 532.251 426.914 528.301 429.762C524.397 432.61 520.125 434.033 515.486 434.033C512.822 434.033 510.319 433.505 507.976 432.449C505.68 431.392 503.659 429.831 501.913 427.764C500.214 425.651 498.859 423.033 497.848 419.909C496.884 416.74 496.401 413.042 496.401 408.817C496.401 404.591 496.929 400.48 497.986 396.484C499.042 392.488 500.535 388.744 502.464 385.253C504.439 381.717 506.805 378.478 509.561 375.539C512.317 372.599 515.394 370.073 518.793 367.96C522.238 365.847 525.936 364.216 529.886 363.068C533.882 361.874 538.085 361.277 542.494 361.277C545.664 361.277 548.833 361.506 552.002 361.966C555.218 362.425 558.341 363.252 561.372 364.446L552.898 433H543.872C541.713 433 540.244 432.472 539.463 431.415C538.728 430.313 538.36 428.958 538.36 427.35L538.912 418.256ZM597.683 330.617L590.518 389.249H592.24C593.297 389.249 594.146 389.089 594.789 388.767C595.478 388.446 596.19 387.849 596.925 386.976L615.734 365.273C616.515 364.308 617.342 363.573 618.215 363.068C619.088 362.563 620.19 362.31 621.522 362.31H636.68L613.392 388.56C611.738 390.582 609.947 392.166 608.018 393.314C608.891 393.958 609.625 394.738 610.223 395.657C610.866 396.576 611.44 397.586 611.945 398.689L629.376 433H614.632C613.392 433 612.358 432.793 611.532 432.38C610.705 431.921 610.039 431.117 609.534 429.968L595.823 403.167C595.318 402.111 594.766 401.422 594.169 401.1C593.618 400.778 592.699 400.618 591.413 400.618H589.071L585.144 433H568.332L580.941 330.617H597.683ZM663.409 362.31L654.934 433H638.192L646.667 362.31H663.409ZM667.75 341.71C667.75 343.179 667.428 344.557 666.785 345.843C666.188 347.13 665.384 348.255 664.374 349.219C663.363 350.184 662.215 350.965 660.929 351.562C659.643 352.113 658.31 352.389 656.932 352.389C655.6 352.389 654.314 352.113 653.074 351.562C651.834 350.965 650.732 350.184 649.767 349.219C648.802 348.255 648.022 347.13 647.425 345.843C646.873 344.557 646.598 343.179 646.598 341.71C646.598 340.24 646.896 338.839 647.493 337.507C648.091 336.175 648.871 335.026 649.836 334.062C650.801 333.051 651.903 332.27 653.143 331.719C654.429 331.122 655.738 330.824 657.07 330.824C658.448 330.824 659.78 331.122 661.066 331.719C662.353 332.27 663.478 333.028 664.442 333.993C665.453 334.957 666.257 336.106 666.854 337.438C667.451 338.77 667.75 340.194 667.75 341.71ZM718.406 375.608C717.901 376.342 717.419 376.871 716.959 377.192C716.5 377.468 715.903 377.606 715.168 377.606C714.341 377.606 713.514 377.376 712.688 376.917C711.861 376.457 710.896 375.952 709.794 375.401C708.737 374.804 707.497 374.276 706.073 373.816C704.695 373.357 703.042 373.127 701.113 373.127C697.484 373.127 694.705 373.954 692.776 375.608C690.847 377.215 689.882 379.236 689.882 381.671C689.882 383.554 690.548 385.07 691.88 386.218C693.258 387.366 694.981 388.377 697.048 389.249C699.115 390.122 701.319 391.018 703.662 391.937C706.05 392.809 708.278 393.935 710.345 395.313C712.412 396.645 714.111 398.39 715.443 400.549C716.821 402.662 717.51 405.395 717.51 408.748C717.51 412.147 716.821 415.385 715.443 418.462C714.111 421.54 712.182 424.25 709.656 426.592C707.13 428.889 704.075 430.726 700.492 432.104C696.956 433.436 692.96 434.102 688.504 434.102C686.299 434.102 684.141 433.873 682.028 433.413C679.915 433 677.94 432.403 676.102 431.622C674.311 430.841 672.657 429.923 671.142 428.866C669.626 427.81 668.34 426.661 667.283 425.421L671.486 418.945C671.991 418.164 672.589 417.567 673.278 417.153C673.967 416.74 674.816 416.533 675.827 416.533C676.791 416.533 677.664 416.832 678.445 417.429C679.226 418.026 680.121 418.692 681.132 419.427C682.188 420.116 683.452 420.759 684.921 421.356C686.437 421.953 688.366 422.252 690.709 422.252C692.592 422.252 694.246 421.999 695.67 421.494C697.139 420.989 698.38 420.3 699.39 419.427C700.401 418.554 701.158 417.544 701.664 416.395C702.169 415.247 702.422 414.03 702.422 412.744C702.422 411.182 702.031 409.896 701.25 408.886C700.47 407.829 699.413 406.933 698.081 406.198C696.795 405.418 695.325 404.752 693.672 404.2C692.018 403.603 690.318 402.983 688.573 402.34C686.874 401.697 685.197 400.962 683.543 400.135C681.936 399.309 680.466 398.275 679.134 397.035C677.848 395.749 676.814 394.21 676.034 392.419C675.253 390.582 674.862 388.354 674.862 385.736C674.862 382.612 675.459 379.581 676.654 376.641C677.848 373.655 679.593 371.037 681.89 368.787C684.187 366.49 687.011 364.653 690.364 363.275C693.763 361.897 697.645 361.208 702.008 361.208C706.51 361.208 710.506 361.989 713.997 363.55C717.487 365.066 720.404 367.018 722.747 369.407L718.406 375.608ZM733.119 418.6C733.119 418.279 733.119 417.911 733.119 417.498C733.119 417.039 733.142 416.395 733.188 415.569C733.28 414.696 733.395 413.571 733.533 412.193C733.716 410.769 733.946 408.954 734.221 406.75L738.149 375.056H731.466C730.639 375.056 729.95 374.758 729.399 374.161C728.893 373.564 728.733 372.668 728.916 371.474L729.674 364.722L740.422 362.861L746.072 343.57C746.394 342.651 746.876 341.939 747.519 341.434C748.162 340.929 748.966 340.676 749.93 340.676H759.025L756.269 362.93H773.356L771.909 375.056H754.753L750.964 405.854C750.734 407.737 750.55 409.23 750.413 410.332C750.275 411.435 750.16 412.307 750.068 412.951C750.022 413.548 749.999 413.984 749.999 414.26C749.999 414.489 749.999 414.65 749.999 414.742C749.999 416.487 750.413 417.865 751.239 418.876C752.112 419.886 753.329 420.392 754.891 420.392C755.856 420.392 756.682 420.277 757.371 420.047C758.06 419.771 758.657 419.496 759.163 419.22C759.668 418.945 760.127 418.692 760.541 418.462C760.954 418.187 761.345 418.049 761.712 418.049C762.217 418.049 762.608 418.187 762.883 418.462C763.159 418.692 763.411 419.06 763.641 419.565L767.293 427.833C764.766 429.9 761.965 431.461 758.887 432.518C755.856 433.574 752.755 434.102 749.586 434.102C744.579 434.102 740.606 432.747 737.666 430.037C734.773 427.327 733.257 423.515 733.119 418.6ZM823.093 373.472C822.45 373.426 821.83 373.403 821.233 373.403C820.682 373.357 820.13 373.334 819.579 373.334C815.767 373.334 812.23 374.207 808.969 375.952C805.708 377.697 802.883 380.063 800.494 383.049C798.152 385.988 796.291 389.433 794.914 393.383C793.581 397.288 792.915 401.422 792.915 405.785C792.915 410.746 793.696 414.374 795.258 416.671C796.82 418.968 798.956 420.116 801.666 420.116C803.549 420.116 805.386 419.473 807.177 418.187C809.015 416.855 810.737 415.063 812.345 412.813C813.998 410.516 815.491 407.829 816.823 404.752C818.201 401.674 819.395 398.367 820.406 394.83L823.093 373.472ZM818.408 418.256C815.284 423.079 811.748 426.914 807.798 429.762C803.893 432.61 799.622 434.033 794.982 434.033C792.318 434.033 789.815 433.505 787.472 432.449C785.176 431.392 783.155 429.831 781.409 427.764C779.71 425.651 778.355 423.033 777.344 419.909C776.38 416.74 775.898 413.042 775.898 408.817C775.898 404.591 776.426 400.48 777.482 396.484C778.539 392.488 780.031 388.744 781.961 385.253C783.936 381.717 786.301 378.478 789.057 375.539C791.813 372.599 794.891 370.073 798.29 367.96C801.734 365.847 805.432 364.216 809.382 363.068C813.378 361.874 817.581 361.277 821.991 361.277C825.16 361.277 828.329 361.506 831.499 361.966C834.714 362.425 837.837 363.252 840.869 364.446L832.394 433H823.369C821.21 433 819.74 432.472 818.959 431.415C818.224 430.313 817.857 428.958 817.857 427.35L818.408 418.256ZM870.358 376.917C873.941 371.634 877.914 367.707 882.278 365.135C886.641 362.517 891.143 361.208 895.782 361.208C898.722 361.208 901.363 361.805 903.705 362.999C906.048 364.193 907.977 365.939 909.493 368.235C911.008 370.486 912.065 373.288 912.662 376.641C913.305 379.948 913.351 383.738 912.8 388.009L907.495 433H890.477L895.782 388.009C896.379 383.416 896.149 380.132 895.093 378.157C894.036 376.136 892.107 375.125 889.305 375.125C887.422 375.125 885.493 375.676 883.518 376.779C881.543 377.835 879.637 379.374 877.799 381.395C875.962 383.37 874.263 385.759 872.701 388.56C871.185 391.316 869.945 394.417 868.98 397.862L865.053 433H848.035L856.51 362.241H865.122C866.913 362.241 868.291 362.678 869.256 363.55C870.267 364.423 870.772 365.824 870.772 367.753L870.358 376.917Z" fill="black"/>
</svg>
